<svg xmlns="http://www.w3.org/2000/svg" xmlns:xlink="http://www.w3.org/1999/xlink" width="190" height="49" viewBox="0 0 190 49">
    <defs>
        <path id="a" d="M0 70.848h189.828V.36H0z"/>
    </defs>
    <g fill="none" fill-rule="evenodd">
        <path fill="#FFF" d="M150 38h6V0h-6zM77 38h6V11h-6zM33 38h6V11h-6z"/>
        <g>
            <path fill="#FFF" d="M183.502 32.353h-12.6c-1.665 0-3.303-1.574-3.303-3.174V19.89c0-1.529 1.517-2.834 3.303-2.834h12.6v15.296zm-14.366-21.347c-4.344 0-7.815 3.373-7.815 7.599V30.86c0 4.25 3.398 7.52 7.815 7.52h20.643V11.006h-20.643zM139.28 32.353h-12.6c-1.665 0-3.304-1.574-3.304-3.174V19.89c0-1.529 1.517-2.834 3.304-2.834h12.6v15.296zm-14.367-21.347c-4.343 0-7.815 3.373-7.815 7.599V30.86c0 4.25 3.398 7.52 7.815 7.52h20.643V11.006h-20.643z"/>
            <mask id="b" fill="#fff">
                <use xlink:href="#a"/>
            </mask>
            <path fill="#FFF" d="M88.51 38.38h6.277V.362h-6.278zM114.724 11.005h-8.151L94.787 24.693l11.785 13.687h8.15l-11.784-13.687zM50.574 29.179V19.89c0-1.528 1.517-2.834 3.304-2.834h12.6v15.297h-12.6c-1.665 0-3.304-1.575-3.304-3.175zm22.18-18.173H52.111c-4.343 0-7.815 3.373-7.815 7.598V30.86c0 4.251 3.398 7.52 7.815 7.52h20.643V11.007z" mask="url(#b)"/>
            <path fill="#FFF" d="M66.476 31.599v8.172c0 1.602-1.637 3.178-3.3 3.178h-6.227l-6.377-.001 4.745 6.04h9.606c4.42 0 7.818-3.268 7.818-7.518V31.6h-6.265zM33.253 6.396h6.277V.359h-6.277zM77.484 6.396h6.278V.359h-6.278zM22.23 32.33H9.63c-1.785 0-3.303-1.307-3.303-2.836v-.306l-.002-.034v-9.288c0-1.529 1.518-2.834 3.304-2.834H22.23V32.33zm0-31.97v10.647H7.863c-4.417 0-7.815 3.269-7.815 7.52V30.78c0 4.226 3.472 7.599 7.815 7.599h20.643V.359H22.23z" mask="url(#b)"/>
        </g>
    </g>
</svg>
